<?xml version="1.0" encoding="UTF-8" standalone="no"?>
<svg
   xmlns:dc="http://purl.org/dc/elements/1.1/"
   xmlns:cc="http://creativecommons.org/ns#"
   xmlns:rdf="http://www.w3.org/1999/02/22-rdf-syntax-ns#"
   xmlns:svg="http://www.w3.org/2000/svg"
   xmlns="http://www.w3.org/2000/svg"
   xmlns:sodipodi="http://sodipodi.sourceforge.net/DTD/sodipodi-0.dtd"
   xmlns:inkscape="http://www.inkscape.org/namespaces/inkscape"
   width="2848.165"
   height="772.48242"
   viewBox="0 0 2278.5303 617.98476"
   id="svg3383"
   version="1.1"
   inkscape:version="0.91 r"
   sodipodi:docname="stroom9_white.svg">
  <metadata
     id="metadata3390">
    <rdf:RDF>
      <cc:Work
         rdf:about="">
        <dc:format>image/svg+xml</dc:format>
        <dc:type
           rdf:resource="http://purl.org/dc/dcmitype/StillImage" />
        <dc:title></dc:title>
      </cc:Work>
    </rdf:RDF>
  </metadata>
  <defs
     id="defs3388" />
  <sodipodi:namedview
     pagecolor="#ffffff"
     bordercolor="#666666"
     borderopacity="1"
     objecttolerance="10"
     gridtolerance="10"
     guidetolerance="10"
     inkscape:pageopacity="0"
     inkscape:pageshadow="2"
     inkscape:window-width="1440"
     inkscape:window-height="848"
     id="namedview3386"
     showgrid="false"
     inkscape:zoom="0.22351564"
     inkscape:cx="1801.5675"
     inkscape:cy="194.38621"
     inkscape:window-x="0"
     inkscape:window-y="0"
     inkscape:window-maximized="1"
     inkscape:current-layer="layer2"
     units="px"
     fit-margin-top="0"
     fit-margin-left="0"
     fit-margin-right="0"
     fit-margin-bottom="0" />
  <g
     inkscape:groupmode="layer"
     id="layer8"
     inkscape:label="m"
     style="display:inline"
     transform="translate(-79.999939,-719.54313)">
    <path
       d="m 1818.5307,1099.5276 c 0,-53 43,-97 95.9999,-97 53,0 97,44 97,97 l 0,237.9997 76.9999,0 0,-237.9997 c 0,-53 43,-97 96.9999,-97 53,0 95.9999,44 95.9999,97 l 0,237.9997 77,0 0,-237.9997 c 0,-96 -77,-173.9999 -172.9999,-173.9999 -54.9999,0 -103.9999,24.99998 -135.9999,64.99995 -31.9999,-39.99997 -79.9999,-64.99995 -134.9999,-64.99995 -95.9999,0 -173.9998,77.9999 -173.9998,173.9999 l 0,237.9997 77.9999,0 z"
       style="font-style:normal;font-variant:normal;font-weight:500;font-stretch:normal;font-size:999.99920654px;line-height:125%;font-family:Neometric;-inkscape-font-specification:'Neometric Medium';letter-spacing:0px;word-spacing:0px;display:inline;fill:#ffffff;fill-opacity:1;stroke:none;stroke-width:1px;stroke-linecap:butt;stroke-linejoin:miter;stroke-opacity:1"
       id="path4240"
       inkscape:connector-curvature="0"
       sodipodi:nodetypes="sssccsssccsscssccs" />
  </g>
  <g
     inkscape:groupmode="layer"
     id="layer7"
     inkscape:label="o2"
     style="display:inline"
     transform="translate(-79.999939,-719.54313)">
    <path
       transform="translate(9.648903e-7,217.52664)"
       d="m 1524.4736,708.00106 c -113.9999,0 -205.9998,91.99993 -205.9998,205.99984 0,112.9999 91.9999,205.9998 205.9998,205.9998 113.9999,0 205.9999,-92.9999 205.9999,-205.9998 0,-113.99991 -92,-205.99984 -205.9999,-205.99984 z m 0,333.99974 c -70.9999,0 -128.9999,-56.99996 -128.9999,-127.9999 0,-70.99995 58,-128.9999 128.9999,-128.9999 71,0 128.9999,57.99995 128.9999,128.9999 0,70.99994 -57.9999,127.9999 -128.9999,127.9999 z"
       style="font-style:normal;font-variant:normal;font-weight:500;font-stretch:normal;font-size:999.99920654px;line-height:125%;font-family:Neometric;-inkscape-font-specification:'Neometric Medium';letter-spacing:0px;word-spacing:0px;display:inline;fill:#ffffff;fill-opacity:1;stroke:none;stroke-width:1px;stroke-linecap:butt;stroke-linejoin:miter;stroke-opacity:1"
       id="path4238"
       inkscape:connector-curvature="0"
       sodipodi:nodetypes="ssssssssss" />
  </g>
  <g
     inkscape:groupmode="layer"
     id="layer6"
     inkscape:label="o1"
     style="display:inline"
     transform="translate(-79.999939,-719.54313)">
    <path
       transform="translate(9.648903e-7,217.52664)"
       d="m 1189.4152,708.00106 c -113.9999,0 -205.99979,91.99993 -205.99979,205.99984 0,112.9999 91.99989,205.9998 205.99979,205.9998 114,0 205.9999,-92.9999 205.9999,-205.9998 0,-113.99991 -91.9999,-205.99984 -205.9999,-205.99984 z m 0,333.99974 c -70.9999,0 -128.9999,-56.99996 -128.9999,-127.9999 0,-70.99995 58,-128.9999 128.9999,-128.9999 71,0 128.9999,57.99995 128.9999,128.9999 0,70.99994 -57.9999,127.9999 -128.9999,127.9999 z"
       style="font-style:normal;font-variant:normal;font-weight:500;font-stretch:normal;font-size:999.99920654px;line-height:125%;font-family:Neometric;-inkscape-font-specification:'Neometric Medium';letter-spacing:0px;word-spacing:0px;display:inline;fill:#ffffff;fill-opacity:1;stroke:none;stroke-width:1px;stroke-linecap:butt;stroke-linejoin:miter;stroke-opacity:1"
       id="path4236"
       inkscape:connector-curvature="0"
       sodipodi:nodetypes="ssssssssss" />
  </g>
  <g
     inkscape:groupmode="layer"
     id="layer5"
     inkscape:label="r"
     style="display:inline"
     transform="translate(-79.999939,-719.54313)">
    <path
       style="font-style:normal;font-variant:normal;font-weight:500;font-stretch:normal;font-size:999.99920654px;line-height:125%;font-family:Neometric;-inkscape-font-specification:'Neometric Medium';letter-spacing:0px;word-spacing:0px;display:inline;fill:#ffffff;fill-opacity:1;stroke:none;stroke-width:1px;stroke-linecap:butt;stroke-linejoin:miter;stroke-opacity:1"
       d="m 1249.2832,1156.9121 c -142.4941,0 -257.49441,115.0082 -257.5039,257.5 -1.8e-4,85.8398 0,171.6595 0,257.5 l 97.5,0 c -0.015,-85.8117 0.022,-171.836 0,-257.5 0.1058,-88.6599 71.3219,-161.25 160.0059,-161.25 6.6078,0 13.1228,0.4108 19.5273,1.1914 22.7774,-30.6404 52.2308,-56.3548 85.5313,-75.1894 -32.0633,-14.2975 -67.6083,-22.252 -105.0586,-22.252 l 0,0 z"
       transform="matrix(0.79999939,0,0,0.79999931,0,-7.8124933e-4)"
       id="path4234"
       inkscape:connector-curvature="0" />
  </g>
  <g
     inkscape:groupmode="layer"
     id="layer4"
     inkscape:label="t"
     style="display:inline"
     transform="translate(-79.999939,-719.54313)">
    <path
       style="font-style:normal;font-variant:normal;font-weight:500;font-stretch:normal;font-size:999.99920654px;line-height:125%;font-family:Neometric;-inkscape-font-specification:'Neometric Medium';letter-spacing:0px;word-spacing:0px;display:inline;fill:#ffffff;fill-opacity:1;stroke:none;stroke-width:1px;stroke-linecap:butt;stroke-linejoin:miter;stroke-opacity:1"
       d="m 851.80664,899.42969 c -35.98322,10.46323 -68.68748,28.5297 -96.25,52.3789 l 0,204.85941 0.002,0.2441 -0.002,0 c -81.38757,6e-4 -153.78943,37.5249 -200.93359,96.25 l 200.93359,0 0,418.75 96.25,0 0,-418.75 181.06636,0 c 33.9517,-45.0736 82.4552,-79.241 136.2774,-96.25 l -317.34376,0 0,-257.48241 z"
       transform="matrix(0.79999939,0,0,0.79999931,0,-7.8124933e-4)"
       id="path3520"
       inkscape:connector-curvature="0" />
  </g>
  <g
     inkscape:groupmode="layer"
     id="layer2"
     inkscape:label="s"
     style="display:inline"
     transform="translate(-79.999938,-742.01612)">
    <path
       style="font-style:normal;font-variant:normal;font-weight:500;font-stretch:normal;font-size:999.99920654px;line-height:125%;font-family:Neometric;-inkscape-font-specification:'Neometric Medium';letter-spacing:0px;word-spacing:0px;display:inline;fill:#ffffff;fill-opacity:1;stroke:none;stroke-width:1px;stroke-linecap:butt;stroke-linejoin:miter;stroke-opacity:1"
       d="m 252.5,1156.9121 c -83.75,0 -152.5,67.5 -152.5,152.5 0,83.75 68.75,152.5 152.5,152.5 l 210,0 c 31.25,0 56.25,26.25 56.25,56.25 0,31.25 -25,56.25 -56.25,56.25 l -225.98828,0 c -54.0315,17.3594 -102.63564,51.9856 -136.49805,97.5 l 362.48633,0 c 83.74999,0 152.5,-68.75 152.5,-153.75 0,-83.75 -68.75001,-152.5 -152.5,-152.5 l -210,0 c -31.25,0 -56.25,-25 -56.25,-56.25 0,-31.25 25,-56.25 56.25,-56.25 l 285.98828,0 c 33.73815,-44.8541 81.83873,-78.9819 135.26953,-96.25 l -421.25781,0 z"
       transform="matrix(0.79999939,0,0,0.79999931,-9.6489033e-7,22.472212)"
       id="path4230"
       inkscape:connector-curvature="0" />
  </g>
</svg>
